<svg width="177" height="91" viewBox="0 0 177 91" fill="none" xmlns="http://www.w3.org/2000/svg">
<path d="M63.5809 14.24C62.5943 13.7333 61.5143 13.2933 60.3409 12.92C59.1676 12.5467 58.0209 12.36 56.9009 12.36C55.3543 12.36 54.1143 12.72 53.1809 13.44C52.2743 14.16 51.8209 15.12 51.8209 16.32C51.8209 17.2267 52.1143 18 52.7009 18.64C53.2876 19.2533 54.0609 19.7867 55.0209 20.24C55.9809 20.6933 56.9809 21.12 58.0209 21.52C58.9276 21.8667 59.8209 22.2533 60.7009 22.68C61.5809 23.1067 62.3676 23.64 63.0609 24.28C63.7809 24.92 64.3409 25.7067 64.7409 26.64C65.1676 27.5733 65.3809 28.7333 65.3809 30.12C65.3809 31.64 64.9943 33.0267 64.2209 34.28C63.4743 35.5333 62.3943 36.52 60.9809 37.24C59.5676 37.96 57.8876 38.32 55.9409 38.32C54.6609 38.32 53.4343 38.1733 52.2609 37.88C51.1143 37.5867 50.0476 37.2133 49.0609 36.76C48.0743 36.28 47.1943 35.7867 46.4209 35.28L48.1409 32.24C48.7809 32.6933 49.5143 33.1333 50.3409 33.56C51.1676 33.96 52.0343 34.2933 52.9409 34.56C53.8476 34.8 54.7276 34.92 55.5809 34.92C56.4876 34.92 57.3809 34.76 58.2609 34.44C59.1676 34.0933 59.9143 33.5733 60.5009 32.88C61.0876 32.1867 61.3809 31.2667 61.3809 30.12C61.3809 29.1333 61.1143 28.32 60.5809 27.68C60.0743 27.0133 59.3943 26.4533 58.5409 26C57.6876 25.52 56.7809 25.0933 55.8209 24.72C54.9143 24.3733 53.9943 24 53.0609 23.6C52.1276 23.1733 51.2609 22.6667 50.4609 22.08C49.6609 21.4667 49.0209 20.72 48.5409 19.84C48.0609 18.96 47.8209 17.8933 47.8209 16.64C47.8209 15.12 48.1809 13.8 48.9009 12.68C49.6476 11.5333 50.6609 10.64 51.9409 10C53.2209 9.33333 54.6876 8.97333 56.3409 8.92C58.2076 8.92 59.8476 9.14666 61.2609 9.6C62.7009 10.0533 63.9676 10.6133 65.0609 11.28L63.5809 14.24Z" fill="#3F5C3A"/>
<path d="M75.3822 27.76C75.3822 29.0667 75.6889 30.24 76.3022 31.28C76.9422 32.2933 77.7822 33.0933 78.8222 33.68C79.8622 34.2667 81.0355 34.56 82.3422 34.56C83.7022 34.56 84.9155 34.2667 85.9822 33.68C87.0489 33.0933 87.8889 32.2933 88.5022 31.28C89.1155 30.24 89.4222 29.0667 89.4222 27.76V9.08H93.2222V27.88C93.2222 29.9867 92.7289 31.8267 91.7422 33.4C90.7822 34.9733 89.4755 36.1867 87.8222 37.04C86.1955 37.8933 84.3689 38.32 82.3422 38.32C80.3155 38.32 78.4889 37.8933 76.8622 37.04C75.2355 36.1867 73.9422 34.9733 72.9822 33.4C72.0222 31.8267 71.5422 29.9867 71.5422 27.88V9.08H75.3822V27.76Z" fill="#3F5C3A"/>
<path d="M97.7722 38L110.412 7.88H110.652L123.252 38H118.812L109.372 13.96L112.132 12.16L101.572 38H97.7722ZM105.172 27.04H115.932L117.212 30.4H104.052L105.172 27.04Z" fill="#3F5C3A"/>
<path d="M34.9536 58.24C33.9669 57.7333 32.8869 57.2933 31.7136 56.92C30.5403 56.5467 29.3936 56.36 28.2736 56.36C26.7269 56.36 25.4869 56.72 24.5536 57.44C23.6469 58.16 23.1936 59.12 23.1936 60.32C23.1936 61.2267 23.4869 62 24.0736 62.64C24.6603 63.2533 25.4336 63.7867 26.3936 64.24C27.3536 64.6933 28.3536 65.12 29.3936 65.52C30.3003 65.8667 31.1936 66.2533 32.0736 66.68C32.9536 67.1067 33.7403 67.64 34.4336 68.28C35.1536 68.92 35.7136 69.7067 36.1136 70.64C36.5403 71.5733 36.7536 72.7333 36.7536 74.12C36.7536 75.64 36.3669 77.0267 35.5936 78.28C34.8469 79.5333 33.7669 80.52 32.3536 81.24C30.9403 81.96 29.2603 82.32 27.3136 82.32C26.0336 82.32 24.8069 82.1733 23.6336 81.88C22.4869 81.5867 21.4203 81.2133 20.4336 80.76C19.4469 80.28 18.5669 79.7867 17.7936 79.28L19.5136 76.24C20.1536 76.6933 20.8869 77.1333 21.7136 77.56C22.5403 77.96 23.4069 78.2933 24.3136 78.56C25.2203 78.8 26.1003 78.92 26.9536 78.92C27.8603 78.92 28.7536 78.76 29.6336 78.44C30.5403 78.0933 31.2869 77.5733 31.8736 76.88C32.4603 76.1867 32.7536 75.2667 32.7536 74.12C32.7536 73.1333 32.4869 72.32 31.9536 71.68C31.4469 71.0133 30.7669 70.4533 29.9136 70C29.0603 69.52 28.1536 69.0933 27.1936 68.72C26.2869 68.3733 25.3669 68 24.4336 67.6C23.5003 67.1733 22.6336 66.6667 21.8336 66.08C21.0336 65.4667 20.3936 64.72 19.9136 63.84C19.4336 62.96 19.1936 61.8933 19.1936 60.64C19.1936 59.12 19.5536 57.8 20.2736 56.68C21.0203 55.5333 22.0336 54.64 23.3136 54C24.5936 53.3333 26.0603 52.9733 27.7136 52.92C29.5803 52.92 31.2203 53.1467 32.6336 53.6C34.0736 54.0533 35.3403 54.6133 36.4336 55.28L34.9536 58.24Z" fill="#3F5C3A"/>
<path d="M41.1948 82L53.8348 51.88H54.0748L66.6748 82H62.2348L52.7948 57.96L55.5548 56.16L44.9948 82H41.1948ZM48.5948 71.04H59.3548L60.6348 74.4H47.4748L48.5948 71.04Z" fill="#3F5C3A"/>
<path d="M75.7377 71.76C75.7377 73.0667 76.0443 74.24 76.6577 75.28C77.2977 76.2933 78.1377 77.0933 79.1777 77.68C80.2177 78.2667 81.391 78.56 82.6977 78.56C84.0577 78.56 85.271 78.2667 86.3377 77.68C87.4043 77.0933 88.2443 76.2933 88.8577 75.28C89.471 74.24 89.7777 73.0667 89.7777 71.76V53.08H93.5777V71.88C93.5777 73.9867 93.0843 75.8267 92.0977 77.4C91.1377 78.9733 89.831 80.1867 88.1777 81.04C86.551 81.8933 84.7243 82.32 82.6977 82.32C80.671 82.32 78.8443 81.8933 77.2177 81.04C75.591 80.1867 74.2977 78.9733 73.3377 77.4C72.3777 75.8267 71.8977 73.9867 71.8977 71.88V53.08H75.7377V71.76ZM88.8977 45.96L83.8177 51.32H81.4577L84.7777 45.96H88.8977Z" fill="#3F5C3A"/>
<path d="M102.315 82V53.08H110.195C113.049 53.08 115.475 53.52 117.475 54.4C119.502 55.28 121.129 56.44 122.355 57.88C123.582 59.32 124.475 60.92 125.035 62.68C125.622 64.4133 125.915 66.1467 125.915 67.88C125.915 70.0667 125.529 72.0267 124.755 73.76C124.009 75.4933 122.969 76.9733 121.635 78.2C120.302 79.4267 118.769 80.3733 117.035 81.04C115.329 81.68 113.515 82 111.595 82H102.315ZM106.195 78.28H110.835C112.435 78.28 113.902 78.04 115.235 77.56C116.595 77.08 117.769 76.3867 118.755 75.48C119.769 74.5733 120.555 73.4667 121.115 72.16C121.675 70.8267 121.955 69.32 121.955 67.64C121.955 65.8533 121.662 64.2933 121.075 62.96C120.489 61.6 119.689 60.4667 118.675 59.56C117.662 58.6533 116.515 57.9733 115.235 57.52C113.955 57.04 112.609 56.8 111.195 56.8H106.195V78.28Z" fill="#3F5C3A"/>
<path d="M133.233 53.08H152.033V56.8H137.113V65.6H150.433V69.32H137.113V78.28H152.593V82H133.233V53.08Z" fill="#3F5C3A"/>
<path d="M0.999877 0.5L176 0L171.354 5H6.16224L0.999877 0.5Z" fill="#3F5C3A"/>
<path d="M0 91V0.5L5 5V86L0 91Z" fill="#3F5C3A"/>
<path d="M172 86V5L177 0V91L172 86Z" fill="#3F5C3A"/>
<path d="M6 86H171.234L176 91H1L6 86Z" fill="#3F5C3A"/>
</svg>
